<svg width="1020" height="600" viewBox="0 0 1020 600" fill="none" xmlns="http://www.w3.org/2000/svg">
<mask id="mask0_347_305" style="mask-type:luminance" maskUnits="userSpaceOnUse" x="114" y="199" width="788" height="204">
<path d="M901.371 199.327H114.332V402.404H901.371V199.327Z" fill="white"/>
</mask>
<g mask="url(#mask0_347_305)">
<path d="M320.186 353.077V199.327H344.149V259.904C351.656 248.654 362.915 243.173 377.929 243.173C390.632 243.173 400.737 246.923 407.666 254.423C414.596 261.923 418.06 272.596 418.06 286.154V353.077H394.097V289.616C394.097 272.019 386.301 263.366 370.711 263.366C362.915 263.366 356.564 265.673 351.367 270.577C346.459 275.193 343.86 281.827 343.86 290.481V353.366L320.186 353.077Z" fill="#323232"/>
<path d="M531.238 339.808C520.555 350.481 507.274 355.673 491.106 355.673C474.938 355.673 461.657 350.481 450.975 339.808C440.292 329.135 434.807 315.577 434.807 299.423C434.807 282.981 440.292 269.712 450.975 259.039C461.657 248.366 474.938 243.173 491.106 243.173C507.274 243.173 520.555 248.366 531.238 259.039C541.92 269.712 547.117 282.981 547.117 299.423C547.117 315.866 541.92 329.423 531.238 339.808ZM468.586 326.539C474.361 333.173 481.867 336.635 491.395 336.635C500.923 336.635 508.429 333.173 514.203 326.539C519.978 319.904 522.865 310.962 522.865 299.423C522.865 288.173 519.978 279.231 514.203 272.596C508.429 265.962 500.923 262.5 491.684 262.5C482.156 262.5 474.649 265.673 468.875 272.308C463.101 278.943 460.214 287.885 460.214 299.135C459.925 310.673 462.812 319.904 468.586 326.539Z" fill="#323232"/>
<path d="M602.55 355.962C580.607 355.962 569.636 344.135 569.636 320.481V265.962H552.891V245.769H570.214L575.699 214.039H593.6V245.769H636.329V265.962H593.6V319.616C593.6 329.423 597.353 334.327 604.571 334.327C611.5 334.327 617.563 328.269 623.049 315.865L641.526 325.385C632.287 345.866 619.295 355.962 602.55 355.962Z" fill="#323232"/>
<path d="M649.033 402.404C638.35 402.404 629.689 399.519 622.76 393.462L631.71 374.712C636.041 379.616 640.66 382.212 645.568 382.212C652.209 382.212 655.673 377.885 655.673 369.519V245.769H679.637V369.519C679.637 381.058 676.75 389.423 670.975 394.327C665.201 399.808 657.983 402.404 649.033 402.404ZM667.511 227.596C663.469 227.596 659.715 226.154 656.828 223.558C655.385 222.116 654.23 220.673 653.652 218.943C652.786 217.212 652.498 215.193 652.786 213.462C652.786 211.443 653.075 209.712 653.941 207.981C654.807 206.25 655.673 204.519 657.117 203.366C660.004 200.769 663.757 199.327 667.799 199.327C671.841 199.327 675.595 200.769 678.482 203.366C679.925 204.808 681.08 206.25 681.658 207.981C682.524 209.712 682.813 211.731 682.813 213.462C682.813 215.481 682.524 217.212 681.658 218.943C680.792 220.673 679.925 222.116 678.482 223.558C677.038 225 675.306 225.866 673.574 226.731C671.553 227.308 669.532 227.885 667.511 227.596Z" fill="#323232"/>
<path d="M738.824 355.962C726.698 355.962 716.593 352.789 709.086 346.731C701.58 340.673 697.826 332.308 697.826 322.212C697.826 312.693 701.868 304.904 709.664 298.27C717.459 291.635 727.564 288.462 739.401 288.462C751.527 288.462 761.921 292.5 770.294 300.289V287.308C770.294 279.52 768.273 273.75 764.519 269.423C760.477 265.097 754.992 263.077 747.774 263.077C733.05 263.077 724.099 270.577 720.635 285.289L698.692 280.673C701.579 269.135 707.354 260.193 716.304 253.558C724.965 246.923 735.937 243.462 748.929 243.462C763.076 243.462 774.336 247.212 782.42 254.712C790.504 262.212 794.835 273.173 794.835 287.308V353.366H771.449V339.808C763.365 350.481 752.682 355.962 738.824 355.962ZM743.443 338.077C754.126 338.077 763.076 332.885 770.583 322.212V318.75C763.076 309.808 754.126 305.481 743.443 305.481C737.38 305.481 732.183 306.923 728.43 310.097C726.698 311.539 725.254 313.27 724.099 315.289C723.233 317.308 722.656 319.616 722.656 321.923C722.656 324.231 722.944 326.539 724.099 328.558C724.965 330.577 726.409 332.308 728.43 333.75C731.895 336.635 737.092 338.077 743.443 338.077Z" fill="#323232"/>
<path d="M817.643 353.077V245.769H841.028V264.231C846.803 250.673 857.197 243.75 871.632 243.75C880.294 243.75 887.223 246.635 892.997 252.115C898.772 257.596 901.37 265.385 901.37 274.615C901.37 280.385 900.215 285.865 898.483 291.346L876.541 289.038C877.118 286.154 877.407 283.269 877.407 280.096C877.407 269.135 872.787 263.365 863.548 263.365C857.485 263.365 852 266.538 847.958 273.173C843.627 279.808 841.606 288.462 841.606 299.135V352.5H817.643V353.077Z" fill="#323232"/>
<path d="M170.92 262.212C188.82 252.404 213.072 238.846 213.072 199.327H183.335C183.335 221.25 172.652 227.308 156.195 236.25C138.295 246.058 114.043 259.616 114.043 299.135H143.492C143.781 277.212 154.463 271.443 170.92 262.212Z" fill="#FF3C00"/>
<path d="M222.022 253.27C222.022 275.193 211.34 281.25 194.883 290.193C176.983 300 152.73 313.558 152.73 353.077H182.179C182.179 331.154 192.862 325.096 209.319 316.154C227.219 306.346 251.471 292.789 251.471 253.27H222.022Z" fill="#FF3C00"/>
</g>
</svg>
